<svg xmlns="http://www.w3.org/2000/svg" width="141" height="54" viewBox="0 0 141 54" fill="none"><path d="M140.362 33.6398C140.032 33.3644 139.812 33.7499 139.647 33.9702C138.493 35.3471 137.064 36.3385 135.36 36.7791C132.558 37.5501 129.755 37.3298 126.952 36.9994C124.588 36.724 122.28 36.1732 119.972 35.5674C117.059 34.7413 114.146 33.805 111.233 33.0339C107.936 32.2078 104.638 31.5469 101.231 31.2165C95.2949 30.6106 89.4142 31.1614 83.5885 32.2629C79.9062 32.9238 76.4437 34.1905 72.8713 35.292C71.2775 35.7877 69.6287 36.0631 67.925 36.008C67.1006 36.008 66.8258 35.6225 66.8807 34.8514C66.9357 34.0253 67.2655 33.3093 67.6502 32.6484C68.1448 31.7672 68.4746 30.886 67.7051 30.0048C67.4853 29.7294 67.2105 29.454 66.9907 29.1787C66.8807 29.0685 66.7159 28.8482 66.7159 28.7381C66.7159 28.683 66.8258 28.6279 67.1555 28.3525C67.8151 27.9119 68.4196 27.3612 68.9692 26.7554C69.189 26.48 69.3539 26.1495 69.189 25.764C69.0242 25.3785 68.6395 25.3234 68.3097 25.3785C67.4853 25.4335 66.7708 25.764 66.1113 26.2046C65.3419 26.7003 65.0121 27.4163 65.177 28.2975C65.177 28.4076 65.177 28.4627 65.177 28.5728C65.177 28.6279 65.122 28.683 65.0121 28.7381C64.2976 29.0685 63.6381 29.399 62.9786 29.7294C60.1757 31.0512 57.2628 32.2078 54.295 33.1992C51.3272 34.1354 48.3593 34.9616 45.2266 35.2369C41.4894 35.5674 37.8621 35.1819 34.3996 33.7499C34.2897 33.6948 34.1798 33.5847 34.0698 33.4745C35.169 33.089 36.2133 32.7586 37.2025 32.2078C38.0819 31.7121 38.8513 31.1614 39.291 30.2251C39.7307 29.3439 39.4559 28.4627 38.6864 28.2975C37.917 28.1873 37.2025 28.2424 36.4331 28.5728C35.4988 29.0134 34.8393 29.6743 34.1248 30.3352C33.9599 30.5005 33.3004 31.3266 33.6302 30.5555C33.905 29.9497 34.1248 29.3439 34.3446 28.7381C34.5095 28.6279 34.6744 28.4627 34.8942 28.3525C37.8621 26.7003 40.61 24.8277 43.3031 22.7899C46.6556 20.2565 49.7883 17.5578 52.7561 14.6388C55.1743 12.2706 57.4826 9.79218 59.1314 6.76304C59.8459 5.55138 60.3405 4.22957 60.3405 2.79762C60.3405 1.25551 59.1314 0.319232 57.5926 0.539533C56.3285 0.759834 55.1743 1.20044 54.0202 1.80626C53.8003 1.91641 53.3057 2.24687 53.3057 2.24687C53.3057 2.24687 51.9317 3.12807 51.2722 3.62375C47.48 6.54274 44.4572 10.1777 41.4894 13.9228C40.1154 15.6852 38.8513 17.5027 37.6422 19.3753C36.1583 21.6884 34.6744 24.0567 33.5202 26.5901C32.6958 28.5178 32.6409 28.5728 32.421 28.9033C32.3661 29.0134 32.2012 29.0134 31.5967 29.3439C30.4425 30.0048 29.2883 30.7208 28.0792 31.3266C25.2763 32.7586 22.4734 34.1354 19.6704 35.5674C17.1972 36.7791 14.724 38.0458 12.3058 39.5328C12.2509 39.5328 12.1409 39.643 12.1409 39.5879C12.1409 39.5328 12.1409 39.3676 12.1959 39.3125C12.3058 38.7067 12.4707 38.1009 12.5806 37.495C13.1852 34.2456 13.6798 30.9962 13.9546 27.7467C14.0096 26.9206 13.8996 26.6452 13.2951 26.5901C12.3608 26.48 11.9761 26.7554 11.9211 27.5815C11.8661 28.9584 11.5913 30.2802 11.4265 31.6571C11.0967 34.3007 10.6021 36.8892 10.1624 39.4227C10.0525 39.9183 9.99751 40.5242 9.83264 40.9097L9.72272 41.0198C9.338 41.2952 9.11816 41.4054 8.62352 41.6808C6.37018 43.0576 4.22675 44.5447 2.41309 46.5274C1.14901 47.9043 0.489498 49.4464 0.984135 51.3189C1.14901 52.1451 1.64365 52.806 2.523 53.0263C4.39163 53.577 5.82058 52.7509 7.08465 51.5392C8.89832 49.7768 9.77768 47.4637 10.657 45.0954C11.2066 43.6084 11.5364 42.0663 11.9761 40.5242C13.0753 39.9183 14.1744 39.3676 15.2736 38.7618C17.5819 37.5501 19.9452 36.2834 22.3085 35.1268C24.6168 33.9702 26.98 32.7586 29.2883 31.602C30.1677 31.1614 30.9371 30.5005 31.9264 30.2251C31.9264 30.2251 31.9264 30.2251 31.9814 30.2251C31.9264 30.5555 31.8165 30.8309 31.7066 31.1063C31.102 32.9238 30.6074 34.7413 30.6074 36.6689C30.6074 37.2747 30.8272 37.5501 31.3768 37.5501C31.9264 37.5501 32.0913 37.2197 32.0913 36.6689C32.1462 35.7877 32.1463 34.9065 32.421 34.0253C33.0806 34.3557 33.6851 34.6862 34.3446 34.8514C34.4546 34.9065 34.7294 35.0166 34.7294 35.0166C38.2468 36.1181 41.8741 36.2834 45.5564 35.9529C48.6891 35.6775 51.7119 34.8514 54.6797 33.8601C58.2521 32.6484 61.7145 31.1063 65.0671 29.399C65.2869 29.2888 65.2869 29.1787 65.5068 29.5091C65.6167 29.6743 65.7815 29.8396 65.8915 30.0048C66.4411 30.6106 66.4411 31.2165 66.1113 31.8774C65.8915 32.318 65.6167 32.7586 65.3968 33.1992C65.0671 33.9151 64.6824 34.6311 64.9572 35.4572C65.177 36.2283 66.0014 36.724 67.1006 36.7791C69.8486 36.9443 72.4866 36.3385 75.0697 35.4572C76.6636 34.9065 78.3123 34.3557 79.9611 33.9702C83.4786 33.089 86.996 32.4281 90.6233 32.0977C94.5804 31.7121 98.5375 31.7672 102.44 32.2078C106.507 32.6484 110.464 33.805 114.366 34.9616C117.279 35.7877 120.192 36.6689 123.159 37.3298C126.237 37.9907 129.315 38.3762 132.448 38.1559C135.415 37.9356 138.108 36.9994 140.032 34.576C140.417 34.2456 140.747 33.9702 140.362 33.6398ZM37.917 22.6798C40.3352 18.7694 43.0283 15.0794 45.9411 11.4995C47.9746 9.0762 50.0631 6.76304 52.4264 4.67018C52.921 4.22958 54.3499 3.07299 54.5148 2.90777C55.3392 2.30194 56.2186 1.80626 57.2078 1.58596C58.9116 1.20044 59.5162 1.80626 59.3513 3.40345C59.2414 4.28465 58.9116 5.0557 58.5269 5.82676C57.4277 7.97469 55.8888 9.7371 54.295 11.5546C52.1516 14.033 49.7883 16.2911 47.3151 18.439C44.4022 20.9725 41.3245 23.2856 38.1368 25.4335C37.2025 26.0945 36.2133 26.5351 35.3339 27.196C36.2133 25.6539 36.9827 24.1668 37.917 22.6798ZM9.00824 45.0403C8.51361 46.7477 7.90905 48.455 7.0297 49.9971C6.4801 50.9334 5.87554 51.8146 4.83131 52.2552C3.29244 52.9712 1.86349 52.09 1.80853 50.3826C1.75357 48.5101 2.85276 47.2434 4.06187 46.0868C5.71066 44.5447 7.52433 43.2229 9.44792 42.0663C9.50288 42.0112 9.66776 41.846 9.83264 41.846C9.66776 42.9475 9.28304 44.049 9.00824 45.0403ZM36.4881 29.454C36.8178 29.2337 37.1476 29.1236 37.4773 29.0134C37.7521 28.9584 38.0269 28.7931 38.1918 29.0685C38.4117 29.3439 38.2468 29.7294 38.0819 30.0048C37.6972 30.5005 37.2025 30.886 36.7079 31.2165C35.6637 31.9324 34.5095 32.4832 33.0256 32.7586C34.2347 31.5469 35.169 30.2802 36.4881 29.454ZM66.3861 27.8569C66.4411 27.0307 67.1555 26.3148 68.2547 26.0945C68.0349 26.7003 67.3204 27.3612 66.3861 27.8569Z" fill="#F2F3EE"></path><path d="M69.7386 41.626H70.2881V45.3711C70.2881 45.9218 70.2332 46.3624 70.1782 46.5827C70.0683 46.8031 69.9584 46.9683 69.7386 47.1335C69.5187 47.2437 69.2989 47.3538 69.0241 47.3538C68.8042 47.3538 68.5844 47.2987 68.3646 47.2437C68.1447 47.1335 67.9249 47.0234 67.6501 46.8031L67.9249 46.3625C68.1997 46.5828 68.4195 46.6929 68.6394 46.8031C68.7493 46.8581 68.8592 46.9132 69.0241 46.9132C69.189 46.9132 69.2989 46.8581 69.4638 46.748C69.5737 46.6378 69.6836 46.5277 69.7386 46.3625C69.7935 46.1972 69.7935 45.9218 69.7935 45.4262V41.626H69.7386Z" fill="#F2F3EE"></path><path d="M79.8512 41.626H80.4008V43.9391H83.1488V41.626H83.6984V47.1886H83.1488V44.4899H80.4008V47.1886H79.8512V41.626Z" fill="#F2F3EE"></path><path d="M95.7345 41.5156C96.5589 41.5156 97.2184 41.791 97.768 42.3418C98.3176 42.8925 98.5924 43.6085 98.5924 44.4346C98.5924 45.2607 98.3176 45.9216 97.768 46.4724C97.2184 47.0232 96.5589 47.2985 95.7894 47.2985C95.02 47.2985 94.3055 47.0232 93.7559 46.4724C93.2063 45.9216 92.9315 45.2057 92.9315 44.4346C92.9315 43.8839 93.0414 43.3882 93.3162 42.9476C93.591 42.507 93.9208 42.1215 94.3605 41.9012C94.8001 41.6258 95.2398 41.5156 95.7345 41.5156ZM95.7894 42.0664C95.4047 42.0664 95.02 42.1765 94.6902 42.3968C94.3605 42.6171 94.0857 42.8925 93.8658 43.278C93.646 43.6636 93.591 44.0491 93.591 44.4897C93.591 45.1506 93.8109 45.7013 94.2506 46.1419C94.6902 46.5825 95.2398 46.8028 95.8444 46.8028C96.2841 46.8028 96.6688 46.6927 96.9985 46.4724C97.3283 46.2521 97.6031 45.9767 97.8229 45.5912C98.0428 45.2057 98.0977 44.8201 98.0977 44.3795C98.0977 43.9389 97.9878 43.5534 97.8229 43.1679C97.6581 42.7824 97.3283 42.507 96.9985 42.3418C96.6688 42.1765 96.1741 42.0664 95.7894 42.0664Z" fill="#F2F3EE"></path><path d="M107.936 41.626H108.485V43.7188L110.629 41.626H111.343L108.76 44.1044L111.508 47.1335H110.793L108.43 44.545V47.1335H107.881V41.626H107.936Z" fill="#F2F3EE"></path><path d="M120.576 41.626H123.654V42.1767H121.126V43.9391H123.654V44.4899H121.126V46.6929H123.654V47.2437H120.631V41.626H120.576Z" fill="#F2F3EE"></path><path d="M132.887 41.626H133.931C134.536 41.626 134.921 41.626 135.141 41.6811C135.47 41.7361 135.69 41.9014 135.91 42.1767C136.13 42.4521 136.185 42.7275 136.185 43.113C136.185 43.3884 136.13 43.6638 135.965 43.8841C135.855 44.1044 135.635 44.2696 135.36 44.3797C135.086 44.4899 134.756 44.545 134.316 44.545L136.24 47.1335H135.58L133.657 44.545H133.382V47.1335H132.832V41.626H132.887ZM133.382 42.1767V44.0493H134.316C134.701 44.0493 134.921 43.9942 135.086 43.9391C135.251 43.8841 135.415 43.7739 135.47 43.6087C135.525 43.4435 135.635 43.2782 135.635 43.113C135.635 42.9478 135.58 42.7826 135.47 42.6173C135.36 42.4521 135.251 42.342 135.086 42.2869C134.921 42.2318 134.646 42.1767 134.316 42.1767H133.382Z" fill="#F2F3EE"></path></svg>